<svg xmlns="http://www.w3.org/2000/svg" xmlns:xlink="http://www.w3.org/1999/xlink" width="500" zoomAndPan="magnify" viewBox="0 0 375 374.999991" height="500" preserveAspectRatio="xMidYMid meet" version="1.0"><defs><g/><clipPath id="f5095ace5e"><path d="M 140 166 L 142 166 L 142 201.03125 L 140 201.03125 Z M 140 166 " clip-rule="nonzero"/></clipPath><clipPath id="c96f7d72ca"><path d="M 160 152 L 163 152 L 163 201.03125 L 160 201.03125 Z M 160 152 " clip-rule="nonzero"/></clipPath><clipPath id="db7bfcd1a5"><path d="M 180 166 L 183 166 L 183 201.03125 L 180 201.03125 Z M 180 166 " clip-rule="nonzero"/></clipPath><clipPath id="626aab829e"><path d="M 200 152 L 203 152 L 203 201.03125 L 200 201.03125 Z M 200 152 " clip-rule="nonzero"/></clipPath><clipPath id="b4de72da91"><path d="M 220 134 L 223 134 L 223 201.03125 L 220 201.03125 Z M 220 134 " clip-rule="nonzero"/></clipPath><clipPath id="1bd4ba326b"><path d="M 240 166 L 243 166 L 243 201.03125 L 240 201.03125 Z M 240 166 " clip-rule="nonzero"/></clipPath><clipPath id="980ae3b9a3"><path d="M 237 112 L 245.964844 112 L 245.964844 121 L 237 121 Z M 237 112 " clip-rule="nonzero"/></clipPath><clipPath id="87893c049f"><path d="M 183 81.03125 L 243 81.03125 L 243 139 L 183 139 Z M 183 81.03125 " clip-rule="nonzero"/></clipPath><clipPath id="72a841a532"><path d="M 232 81.03125 L 243 81.03125 L 243 91 L 232 91 Z M 232 81.03125 " clip-rule="nonzero"/></clipPath></defs><rect x="-37.5" width="450" fill="#ffffff" y="-37.499999" height="449.999989" fill-opacity="1"/><rect x="-37.5" width="450" fill="#e6ecf4" y="-37.499999" height="449.999989" fill-opacity="1"/><path fill="#99dfec" d="M 241.691406 113.898438 C 243.390625 113.898438 244.78125 115.265625 244.78125 116.96875 C 244.78125 118.667969 243.390625 120.058594 241.691406 120.058594 C 239.988281 120.058594 238.605469 118.667969 238.605469 116.96875 C 238.605469 115.265625 239.988281 113.898438 241.691406 113.898438 " fill-opacity="1" fill-rule="nonzero"/><path fill="#99dfec" d="M 221.566406 129.324219 C 223.269531 129.324219 224.636719 130.707031 224.636719 132.414062 C 224.636719 134.117188 223.269531 135.5 221.566406 135.5 C 219.867188 135.5 218.476562 134.117188 218.476562 132.414062 C 218.476562 130.707031 219.867188 129.324219 221.566406 129.324219 " fill-opacity="1" fill-rule="nonzero"/><path fill="#99dfec" d="M 201.425781 147.507812 C 203.128906 147.507812 204.515625 148.875 204.515625 150.578125 C 204.515625 152.273438 203.128906 153.664062 201.425781 153.664062 C 199.722656 153.664062 198.355469 152.273438 198.355469 150.578125 C 198.355469 148.875 199.722656 147.507812 201.425781 147.507812 " fill-opacity="1" fill-rule="nonzero"/><path fill="#99dfec" d="M 184.019531 138.3125 C 184.261719 138.742188 184.386719 139.199219 184.386719 139.722656 C 184.386719 141.417969 183.003906 142.808594 181.296875 142.808594 C 179.601562 142.808594 178.210938 141.417969 178.210938 139.722656 C 178.210938 139.199219 178.34375 138.699219 178.601562 138.277344 C 179.101562 137.296875 180.117188 136.652344 181.296875 136.652344 C 182.484375 136.652344 183.539062 137.3125 184.019531 138.3125 " fill-opacity="1" fill-rule="nonzero"/><path fill="#99dfec" d="M 181.296875 161.042969 C 183.003906 161.042969 184.386719 162.414062 184.386719 164.117188 C 184.386719 165.816406 183.003906 167.199219 181.296875 167.199219 C 179.601562 167.199219 178.210938 165.816406 178.210938 164.117188 C 178.210938 162.414062 179.601562 161.042969 181.296875 161.042969 " fill-opacity="1" fill-rule="nonzero"/><path fill="#99dfec" d="M 161.175781 117.933594 C 162.878906 117.933594 164.246094 119.316406 164.246094 121.019531 C 164.246094 122.71875 162.878906 124.085938 161.175781 124.085938 C 159.480469 124.085938 158.089844 122.71875 158.089844 121.019531 C 158.089844 119.316406 159.480469 117.933594 161.175781 117.933594 " fill-opacity="1" fill-rule="nonzero"/><path fill="#99dfec" d="M 161.175781 147.507812 C 162.878906 147.507812 164.246094 148.875 164.246094 150.578125 C 164.246094 152.273438 162.878906 153.664062 161.175781 153.664062 C 159.480469 153.664062 158.089844 152.273438 158.089844 150.578125 C 158.089844 148.875 159.480469 147.507812 161.175781 147.507812 " fill-opacity="1" fill-rule="nonzero"/><path fill="#99dfec" d="M 141.039062 160.726562 C 142.734375 160.726562 144.125 162.113281 144.125 163.816406 C 144.125 165.519531 142.734375 166.886719 141.039062 166.886719 C 139.332031 166.886719 137.964844 165.519531 137.964844 163.816406 C 137.964844 162.113281 139.332031 160.726562 141.039062 160.726562 " fill-opacity="1" fill-rule="nonzero"/><g clip-path="url(#f5095ace5e)"><path fill="#0c1d54" d="M 141.039062 201.253906 C 140.527344 201.253906 140.109375 200.839844 140.109375 200.332031 L 140.109375 167.199219 C 140.109375 166.695312 140.527344 166.277344 141.039062 166.277344 C 141.550781 166.277344 141.957031 166.695312 141.957031 167.199219 L 141.957031 200.332031 C 141.957031 200.839844 141.550781 201.253906 141.039062 201.253906 " fill-opacity="1" fill-rule="nonzero"/></g><g clip-path="url(#c96f7d72ca)"><path fill="#0c1d54" d="M 161.175781 201.253906 C 160.664062 201.253906 160.253906 200.839844 160.253906 200.332031 L 160.253906 153.660156 C 160.253906 153.152344 160.664062 152.738281 161.175781 152.738281 C 161.6875 152.738281 162.105469 153.152344 162.105469 153.660156 L 162.105469 200.332031 C 162.105469 200.839844 161.6875 201.253906 161.175781 201.253906 " fill-opacity="1" fill-rule="nonzero"/></g><g clip-path="url(#db7bfcd1a5)"><path fill="#0c1d54" d="M 181.296875 201.253906 C 180.792969 201.253906 180.378906 200.839844 180.378906 200.332031 L 180.378906 167.199219 C 180.378906 166.695312 180.792969 166.277344 181.296875 166.277344 C 181.816406 166.277344 182.226562 166.695312 182.226562 167.199219 L 182.226562 200.332031 C 182.226562 200.839844 181.816406 201.253906 181.296875 201.253906 " fill-opacity="1" fill-rule="nonzero"/></g><g clip-path="url(#626aab829e)"><path fill="#0c1d54" d="M 201.425781 201.253906 C 200.914062 201.253906 200.503906 200.839844 200.503906 200.332031 L 200.503906 153.660156 C 200.503906 153.152344 200.914062 152.738281 201.425781 152.738281 C 201.9375 152.738281 202.351562 153.152344 202.351562 153.660156 L 202.351562 200.332031 C 202.351562 200.839844 201.9375 201.253906 201.425781 201.253906 " fill-opacity="1" fill-rule="nonzero"/></g><g clip-path="url(#b4de72da91)"><path fill="#0c1d54" d="M 221.566406 201.253906 C 221.054688 201.253906 220.644531 200.839844 220.644531 200.332031 L 220.644531 135.5 C 220.644531 134.988281 221.054688 134.574219 221.566406 134.574219 C 222.078125 134.574219 222.492188 134.988281 222.492188 135.5 L 222.492188 200.332031 C 222.492188 200.839844 222.078125 201.253906 221.566406 201.253906 " fill-opacity="1" fill-rule="nonzero"/></g><path fill="#0c1d54" d="M 241.6875 168.128906 C 241.179688 168.128906 240.765625 167.710938 240.765625 167.199219 L 240.765625 120.058594 C 240.765625 119.546875 241.179688 119.128906 241.6875 119.128906 C 242.203125 119.128906 242.613281 119.546875 242.613281 120.058594 L 242.613281 167.199219 C 242.613281 167.710938 242.203125 168.128906 241.6875 168.128906 " fill-opacity="1" fill-rule="nonzero"/><g clip-path="url(#1bd4ba326b)"><path fill="#0c1d54" d="M 241.6875 201.253906 C 241.179688 201.253906 240.765625 200.839844 240.765625 200.332031 L 240.765625 167.199219 C 240.765625 166.695312 241.179688 166.277344 241.6875 166.277344 C 242.203125 166.277344 242.613281 166.695312 242.613281 167.199219 L 242.613281 200.332031 C 242.613281 200.839844 242.203125 201.253906 241.6875 201.253906 " fill-opacity="1" fill-rule="nonzero"/></g><path fill="#0c1d54" d="M 141.039062 161.65625 C 139.851562 161.65625 138.886719 162.625 138.886719 163.816406 C 138.886719 165.003906 139.851562 165.960938 141.039062 165.960938 C 142.230469 165.960938 143.199219 165.003906 143.199219 163.816406 C 143.199219 162.625 142.230469 161.65625 141.039062 161.65625 Z M 141.039062 167.816406 C 138.832031 167.816406 137.039062 166.019531 137.039062 163.816406 C 137.039062 161.605469 138.832031 159.800781 141.039062 159.800781 C 143.246094 159.800781 145.046875 161.605469 145.046875 163.816406 C 145.046875 166.019531 143.246094 167.816406 141.039062 167.816406 " fill-opacity="1" fill-rule="nonzero"/><path fill="#0c1d54" d="M 161.175781 148.425781 C 159.984375 148.425781 159.015625 149.390625 159.015625 150.570312 C 159.015625 151.769531 159.984375 152.738281 161.175781 152.738281 C 162.363281 152.738281 163.328125 151.769531 163.328125 150.570312 C 163.328125 149.390625 162.363281 148.425781 161.175781 148.425781 Z M 161.175781 154.585938 C 158.96875 154.585938 157.167969 152.785156 157.167969 150.570312 C 157.167969 148.375 158.96875 146.578125 161.175781 146.578125 C 163.378906 146.578125 165.175781 148.375 165.175781 150.570312 C 165.175781 152.785156 163.378906 154.585938 161.175781 154.585938 " fill-opacity="1" fill-rule="nonzero"/><path fill="#0c1d54" d="M 181.296875 161.96875 C 180.105469 161.96875 179.136719 162.933594 179.136719 164.117188 C 179.136719 165.308594 180.105469 166.277344 181.296875 166.277344 C 182.496094 166.277344 183.464844 165.308594 183.464844 164.117188 C 183.464844 162.933594 182.496094 161.96875 181.296875 161.96875 Z M 181.296875 168.128906 C 179.089844 168.128906 177.289062 166.328125 177.289062 164.117188 C 177.289062 161.90625 179.089844 160.121094 181.296875 160.121094 C 183.515625 160.121094 185.3125 161.90625 185.3125 164.117188 C 185.3125 166.328125 183.515625 168.128906 181.296875 168.128906 " fill-opacity="1" fill-rule="nonzero"/><path fill="#0c1d54" d="M 201.425781 148.425781 C 200.238281 148.425781 199.277344 149.390625 199.277344 150.570312 C 199.277344 151.769531 200.238281 152.738281 201.425781 152.738281 C 202.617188 152.738281 203.59375 151.769531 203.59375 150.570312 C 203.59375 149.390625 202.617188 148.425781 201.425781 148.425781 Z M 201.425781 154.585938 C 199.222656 154.585938 197.433594 152.785156 197.433594 150.570312 C 197.433594 148.375 199.222656 146.578125 201.425781 146.578125 C 203.636719 146.578125 205.441406 148.375 205.441406 150.570312 C 205.441406 152.785156 203.636719 154.585938 201.425781 154.585938 " fill-opacity="1" fill-rule="nonzero"/><path fill="#0c1d54" d="M 221.566406 130.25 C 220.371094 130.25 219.402344 131.21875 219.402344 132.414062 C 219.402344 133.605469 220.371094 134.574219 221.566406 134.574219 C 222.75 134.574219 223.714844 133.605469 223.714844 132.414062 C 223.714844 131.21875 222.75 130.25 221.566406 130.25 Z M 221.566406 136.429688 C 219.355469 136.429688 217.554688 134.628906 217.554688 132.414062 C 217.554688 130.203125 219.355469 128.398438 221.566406 128.398438 C 223.769531 128.398438 225.5625 130.203125 225.5625 132.414062 C 225.5625 134.628906 223.769531 136.429688 221.566406 136.429688 " fill-opacity="1" fill-rule="nonzero"/><g clip-path="url(#980ae3b9a3)"><path fill="#0c1d54" d="M 241.6875 114.820312 C 240.5 114.820312 239.523438 115.78125 239.523438 116.96875 C 239.523438 118.160156 240.5 119.128906 241.6875 119.128906 C 242.882812 119.128906 243.855469 118.160156 243.855469 116.96875 C 243.855469 115.78125 242.882812 114.820312 241.6875 114.820312 Z M 241.6875 120.980469 C 239.476562 120.980469 237.675781 119.179688 237.675781 116.96875 C 237.675781 114.765625 239.476562 112.972656 241.6875 112.972656 C 243.902344 112.972656 245.703125 114.765625 245.703125 116.96875 C 245.703125 119.179688 243.902344 120.980469 241.6875 120.980469 " fill-opacity="1" fill-rule="nonzero"/></g><path fill="#0c1d54" d="M 177.949219 138.933594 L 162.710938 123.855469 L 164.011719 122.542969 L 179.25 137.621094 L 177.949219 138.933594 " fill-opacity="1" fill-rule="nonzero"/><g clip-path="url(#87893c049f)"><path fill="#0c1d54" d="M 184.664062 138.976562 L 183.375 137.652344 L 241.042969 81.386719 L 242.335938 82.710938 L 184.664062 138.976562 " fill-opacity="1" fill-rule="nonzero"/></g><path fill="#0c1d54" d="M 130.363281 152.570312 C 130.128906 152.570312 129.886719 152.480469 129.707031 152.300781 C 129.34375 151.9375 129.351562 151.347656 129.710938 150.992188 L 158.328125 122.542969 C 158.691406 122.1875 159.273438 122.1875 159.628906 122.550781 C 159.992188 122.910156 159.992188 123.496094 159.628906 123.855469 L 131.011719 152.304688 C 130.839844 152.480469 130.597656 152.570312 130.363281 152.570312 " fill-opacity="1" fill-rule="nonzero"/><path fill="#0c1d54" d="M 161.175781 118.855469 C 159.984375 118.855469 159.015625 119.824219 159.015625 121.019531 C 159.015625 122.203125 159.984375 123.164062 161.175781 123.164062 C 162.363281 123.164062 163.328125 122.203125 163.328125 121.019531 C 163.328125 119.824219 162.363281 118.855469 161.175781 118.855469 Z M 161.175781 125.011719 C 158.96875 125.011719 157.167969 123.226562 157.167969 121.019531 C 157.167969 118.804688 158.96875 117.003906 161.175781 117.003906 C 163.378906 117.003906 165.175781 118.804688 165.175781 121.019531 C 165.175781 123.226562 163.378906 125.011719 161.175781 125.011719 " fill-opacity="1" fill-rule="nonzero"/><path fill="#0c1d54" d="M 181.296875 137.570312 C 180.496094 137.570312 179.78125 138.003906 179.425781 138.691406 C 179.226562 139.027344 179.136719 139.359375 179.136719 139.714844 C 179.136719 140.90625 180.105469 141.882812 181.296875 141.882812 C 182.496094 141.882812 183.464844 140.90625 183.464844 139.714844 C 183.464844 139.371094 183.382812 139.066406 183.210938 138.765625 L 183.1875 138.710938 C 182.859375 138.019531 182.117188 137.570312 181.296875 137.570312 Z M 181.296875 143.730469 C 179.089844 143.730469 177.289062 141.929688 177.289062 139.714844 C 177.289062 139.015625 177.46875 138.355469 177.8125 137.796875 C 178.449219 136.542969 179.800781 135.722656 181.296875 135.722656 C 182.808594 135.722656 184.195312 136.574219 184.839844 137.886719 C 185.152344 138.453125 185.3125 139.070312 185.3125 139.714844 C 185.3125 141.929688 183.515625 143.730469 181.296875 143.730469 " fill-opacity="1" fill-rule="nonzero"/><g clip-path="url(#72a841a532)"><path fill="#0c1d54" d="M 241.765625 90.851562 C 241.253906 90.851562 240.835938 90.4375 240.835938 89.929688 L 240.835938 82.878906 L 233.8125 82.878906 C 233.300781 82.878906 232.890625 82.464844 232.890625 81.953125 C 232.890625 81.445312 233.300781 81.03125 233.8125 81.03125 L 242.542969 81.03125 L 242.691406 81.953125 L 242.691406 89.929688 C 242.691406 90.4375 242.277344 90.851562 241.765625 90.851562 " fill-opacity="1" fill-rule="nonzero"/></g><g fill="#0c1d54" fill-opacity="1"><g transform="translate(103.955132, 229.156216)"><g><path d="M 0.40625 -13.484375 L 12.515625 -13.4375 L 12.515625 -9.53125 L 10.125 -9.53125 L 9.953125 -10.921875 L 8.109375 -10.9375 L 8.109375 -2.5625 L 9.046875 -2.5625 L 9.046875 0 L 3.84375 0 L 3.84375 -2.5625 L 4.8125 -2.5625 L 4.8125 -10.9375 L 2.921875 -10.921875 L 2.796875 -9.53125 L 0.40625 -9.53125 Z M 0.40625 -13.484375 "/></g></g></g><g fill="#0c1d54" fill-opacity="1"><g transform="translate(122.889913, 229.156216)"><g><path d="M 5.59375 0 L 0.546875 0 L 0.546875 -2.5625 L 1.484375 -2.5625 L 1.484375 -10.9375 L 0.546875 -10.9375 L 0.546875 -13.46875 L 7.453125 -13.46875 C 8.210938 -13.46875 8.898438 -13.316406 9.515625 -13.015625 C 10.128906 -12.710938 10.613281 -12.28125 10.96875 -11.71875 C 11.332031 -11.15625 11.515625 -10.46875 11.515625 -9.65625 C 11.515625 -8.757812 11.285156 -8.007812 10.828125 -7.40625 C 10.378906 -6.8125 9.796875 -6.382812 9.078125 -6.125 L 11.28125 -2.5625 L 12.46875 -2.5625 L 12.46875 0 L 9.28125 0 L 5.796875 -5.859375 L 4.765625 -5.859375 L 4.765625 -2.5625 L 5.59375 -2.5625 Z M 4.765625 -7.6875 L 6.53125 -7.6875 C 7.03125 -7.6875 7.4375 -7.835938 7.75 -8.140625 C 8.070312 -8.441406 8.234375 -8.828125 8.234375 -9.296875 C 8.234375 -9.742188 8.082031 -10.128906 7.78125 -10.453125 C 7.476562 -10.773438 7.0625 -10.9375 6.53125 -10.9375 L 4.765625 -10.9375 Z M 4.765625 -7.6875 "/></g></g></g><g fill="#0c1d54" fill-opacity="1"><g transform="translate(141.803705, 229.156216)"><g><path d="M 0.546875 -13.46875 L 11.515625 -13.46875 L 11.515625 -9.875 L 9.234375 -9.875 L 9.09375 -10.9375 L 4.765625 -10.9375 L 4.765625 -8 L 8.609375 -8 L 8.609375 -5.453125 L 4.765625 -5.453125 L 4.765625 -2.5625 L 9.09375 -2.5625 L 9.234375 -3.609375 L 11.515625 -3.609375 L 11.515625 0 L 0.546875 0 L 0.546875 -2.5625 L 1.484375 -2.5625 L 1.484375 -10.9375 L 0.546875 -10.9375 Z M 0.546875 -13.46875 "/></g></g></g><g fill="#0c1d54" fill-opacity="1"><g transform="translate(159.752039, 229.156216)"><g><path d="M 10.359375 -5.359375 L 10.359375 -10.9375 L 9.390625 -10.9375 L 9.390625 -13.484375 L 14.578125 -13.46875 L 14.578125 -10.9375 L 13.625 -10.9375 L 13.625 0 L 11.0625 0 L 4.765625 -8.109375 L 4.765625 -2.5625 L 5.734375 -2.5625 L 5.734375 0 L 0.546875 0 L 0.546875 -2.5625 L 1.484375 -2.5625 L 1.484375 -10.9375 L 0.546875 -10.9375 L 0.546875 -13.484375 L 4.03125 -13.46875 Z M 10.359375 -5.359375 "/></g></g></g><g fill="#0c1d54" fill-opacity="1"><g transform="translate(180.932574, 229.156216)"><g><path d="M 7.6875 -10.9375 L 4.765625 -10.9375 L 4.765625 -2.5625 L 7.6875 -2.5625 C 8.570312 -2.5625 9.273438 -2.75 9.796875 -3.125 C 10.316406 -3.507812 10.695312 -4.015625 10.9375 -4.640625 C 11.175781 -5.273438 11.296875 -5.972656 11.296875 -6.734375 C 11.296875 -7.503906 11.175781 -8.207031 10.9375 -8.84375 C 10.695312 -9.488281 10.316406 -10 9.796875 -10.375 C 9.273438 -10.75 8.570312 -10.9375 7.6875 -10.9375 Z M 0.546875 -13.46875 L 8.125 -13.46875 C 9.59375 -13.46875 10.800781 -13.164062 11.75 -12.5625 C 12.707031 -11.957031 13.414062 -11.144531 13.875 -10.125 C 14.34375 -9.113281 14.578125 -7.984375 14.578125 -6.734375 C 14.578125 -5.503906 14.34375 -4.378906 13.875 -3.359375 C 13.414062 -2.335938 12.707031 -1.519531 11.75 -0.90625 C 10.800781 -0.300781 9.59375 0 8.125 0 L 0.546875 0 L 0.546875 -2.5625 L 1.484375 -2.5625 L 1.484375 -10.9375 L 0.546875 -10.9375 Z M 0.546875 -13.46875 "/></g></g></g><g fill="#0c1d54" fill-opacity="1"><g transform="translate(202.490884, 229.156216)"><g><path d="M 0.546875 -13.46875 L 5.734375 -13.46875 L 5.734375 -10.9375 L 4.765625 -10.9375 L 4.765625 -2.5625 L 9.09375 -2.5625 L 9.234375 -3.609375 L 11.515625 -3.609375 L 11.515625 0 L 0.546875 0 L 0.546875 -2.5625 L 1.484375 -2.5625 L 1.484375 -10.9375 L 0.546875 -10.9375 Z M 0.546875 -13.46875 "/></g></g></g><g fill="#0c1d54" fill-opacity="1"><g transform="translate(220.439224, 229.156216)"><g><path d="M 6.03125 -4.703125 L 1.421875 -10.921875 L 0.40625 -10.921875 L 0.40625 -13.46875 L 5.96875 -13.46875 L 5.96875 -10.921875 L 4.875 -10.921875 L 7.671875 -7.0625 L 10.421875 -10.921875 L 9.34375 -10.921875 L 9.34375 -13.46875 L 14.90625 -13.46875 L 14.90625 -10.921875 L 13.859375 -10.921875 L 9.28125 -4.703125 L 9.28125 -2.5625 L 10.25 -2.5625 L 10.25 0 L 5.046875 0 L 5.046875 -2.5625 L 6.03125 -2.5625 Z M 6.03125 -4.703125 "/></g></g></g><g fill="#0c1d54" fill-opacity="1"><g transform="translate(241.808661, 229.156216)"><g><path d="M 3.125 -10.9375 L 2.984375 -9.65625 L 0.59375 -9.65625 L 0.59375 -13.46875 L 10.546875 -13.46875 L 10.546875 -11.21875 L 4.234375 -2.5625 L 8.375 -2.5625 L 8.53125 -3.796875 L 10.921875 -3.796875 L 10.921875 0 L 0.40625 0 L 0.40625 -2.265625 L 6.671875 -10.9375 Z M 3.125 -10.9375 "/></g></g></g><g fill="#0c1d54" fill-opacity="1"><g transform="translate(259.169324, 229.156216)"><g><path d="M 0.546875 -13.46875 L 11.515625 -13.46875 L 11.515625 -9.875 L 9.234375 -9.875 L 9.09375 -10.9375 L 4.765625 -10.9375 L 4.765625 -8 L 8.609375 -8 L 8.609375 -5.453125 L 4.765625 -5.453125 L 4.765625 -2.5625 L 9.09375 -2.5625 L 9.234375 -3.609375 L 11.515625 -3.609375 L 11.515625 0 L 0.546875 0 L 0.546875 -2.5625 L 1.484375 -2.5625 L 1.484375 -10.9375 L 0.546875 -10.9375 Z M 0.546875 -13.46875 "/></g></g></g><g fill="#0c1d54" fill-opacity="1"><g transform="translate(89.976246, 261.456252)"><g><path d="M 2.703125 -1.125 L 5.359375 -1.125 C 5.929688 -1.125 6.410156 -1.273438 6.796875 -1.578125 C 7.191406 -1.878906 7.390625 -2.320312 7.390625 -2.90625 C 7.390625 -3.507812 7.191406 -3.957031 6.796875 -4.25 C 6.410156 -4.550781 5.929688 -4.703125 5.359375 -4.703125 L 2.703125 -4.703125 Z M 0.578125 -10.25 L 5.078125 -10.25 C 5.660156 -10.25 6.175781 -10.125 6.625 -9.875 C 7.070312 -9.632812 7.421875 -9.304688 7.671875 -8.890625 C 7.921875 -8.484375 8.046875 -8.03125 8.046875 -7.53125 C 8.046875 -7.050781 7.921875 -6.617188 7.671875 -6.234375 C 7.429688 -5.847656 7.117188 -5.539062 6.734375 -5.3125 C 7.316406 -5.175781 7.800781 -4.890625 8.1875 -4.453125 C 8.582031 -4.023438 8.78125 -3.453125 8.78125 -2.734375 C 8.78125 -2.171875 8.644531 -1.679688 8.375 -1.265625 C 8.113281 -0.859375 7.753906 -0.546875 7.296875 -0.328125 C 6.835938 -0.109375 6.316406 0 5.734375 0 L 0.578125 0 L 0.578125 -1.125 L 1.296875 -1.125 L 1.296875 -9.15625 L 0.578125 -9.15625 Z M 2.703125 -5.546875 L 4.71875 -5.546875 C 5.050781 -5.546875 5.363281 -5.625 5.65625 -5.78125 C 5.945312 -5.9375 6.1875 -6.148438 6.375 -6.421875 C 6.5625 -6.691406 6.65625 -7 6.65625 -7.34375 C 6.65625 -7.8125 6.484375 -8.226562 6.140625 -8.59375 C 5.804688 -8.96875 5.332031 -9.15625 4.71875 -9.15625 L 2.703125 -9.15625 Z M 2.703125 -5.546875 "/></g></g></g><g fill="#0c1d54" fill-opacity="1"><g transform="translate(103.78204, 261.456252)"><g><path d="M 5.484375 -0.890625 C 6.335938 -0.890625 7.015625 -1.109375 7.515625 -1.546875 C 8.015625 -1.984375 8.265625 -2.566406 8.265625 -3.296875 L 8.265625 -9.15625 L 7.53125 -9.15625 L 7.53125 -10.265625 L 10.40625 -10.25 L 10.40625 -9.15625 L 9.65625 -9.15625 L 9.65625 -3.296875 C 9.65625 -2.597656 9.484375 -1.984375 9.140625 -1.453125 C 8.796875 -0.929688 8.304688 -0.523438 7.671875 -0.234375 C 7.046875 0.0546875 6.316406 0.203125 5.484375 0.203125 C 4.648438 0.203125 3.921875 0.0625 3.296875 -0.21875 C 2.671875 -0.5 2.179688 -0.898438 1.828125 -1.421875 C 1.472656 -1.953125 1.296875 -2.578125 1.296875 -3.296875 L 1.296875 -9.15625 L 0.578125 -9.15625 L 0.578125 -10.265625 L 3.421875 -10.25 L 3.421875 -9.140625 L 2.703125 -9.15625 L 2.703125 -3.296875 C 2.703125 -2.566406 2.953125 -1.984375 3.453125 -1.546875 C 3.953125 -1.109375 4.628906 -0.890625 5.484375 -0.890625 Z M 5.484375 -0.890625 "/></g></g></g><g fill="#0c1d54" fill-opacity="1"><g transform="translate(119.363407, 261.456252)"><g><path d="M 7.53125 -7.359375 L 6.578125 -7.359375 L 6.53125 -8.25 C 6.382812 -8.425781 6.191406 -8.609375 5.953125 -8.796875 C 5.722656 -8.984375 5.445312 -9.140625 5.125 -9.265625 C 4.8125 -9.398438 4.445312 -9.46875 4.03125 -9.46875 C 3.457031 -9.46875 3 -9.332031 2.65625 -9.0625 C 2.3125 -8.789062 2.140625 -8.414062 2.140625 -7.9375 C 2.140625 -7.632812 2.226562 -7.375 2.40625 -7.15625 C 2.582031 -6.9375 2.851562 -6.722656 3.21875 -6.515625 L 6.265625 -4.890625 C 6.859375 -4.585938 7.285156 -4.238281 7.546875 -3.84375 C 7.804688 -3.445312 7.9375 -2.988281 7.9375 -2.46875 C 7.9375 -1.894531 7.789062 -1.410156 7.5 -1.015625 C 7.207031 -0.617188 6.800781 -0.316406 6.28125 -0.109375 C 5.769531 0.0976562 5.1875 0.203125 4.53125 0.203125 C 3.851562 0.203125 3.273438 0.109375 2.796875 -0.078125 C 2.316406 -0.273438 1.925781 -0.5 1.625 -0.75 C 1.320312 -1.007812 1.097656 -1.234375 0.953125 -1.421875 C 0.816406 -1.617188 0.75 -1.71875 0.75 -1.71875 L 0.75 -2.90625 L 1.703125 -2.90625 L 1.734375 -2.203125 C 1.847656 -2.035156 2.019531 -1.835938 2.25 -1.609375 C 2.488281 -1.390625 2.796875 -1.195312 3.171875 -1.03125 C 3.554688 -0.863281 4.019531 -0.78125 4.5625 -0.78125 C 5.15625 -0.78125 5.632812 -0.90625 6 -1.15625 C 6.363281 -1.414062 6.546875 -1.773438 6.546875 -2.234375 C 6.546875 -2.515625 6.472656 -2.769531 6.328125 -3 C 6.191406 -3.238281 5.925781 -3.46875 5.53125 -3.6875 L 2.5625 -5.28125 C 1.925781 -5.625 1.460938 -5.976562 1.171875 -6.34375 C 0.890625 -6.707031 0.75 -7.160156 0.75 -7.703125 C 0.75 -8.546875 1.046875 -9.222656 1.640625 -9.734375 C 2.234375 -10.242188 3.019531 -10.5 4 -10.5 C 4.613281 -10.5 5.144531 -10.398438 5.59375 -10.203125 C 6.039062 -10.015625 6.40625 -9.789062 6.6875 -9.53125 C 6.976562 -9.28125 7.191406 -9.054688 7.328125 -8.859375 C 7.460938 -8.671875 7.53125 -8.578125 7.53125 -8.578125 Z M 7.53125 -7.359375 "/></g></g></g><g fill="#0c1d54" fill-opacity="1"><g transform="translate(132.481365, 261.456252)"><g><path d="M 0.578125 -10.265625 L 3.421875 -10.25 L 3.421875 -9.140625 L 2.703125 -9.15625 L 2.703125 -1.125 L 3.421875 -1.125 L 3.421875 0 L 0.578125 0 L 0.578125 -1.125 L 1.296875 -1.125 L 1.296875 -9.15625 L 0.578125 -9.15625 Z M 0.578125 -10.265625 "/></g></g></g><g fill="#0c1d54" fill-opacity="1"><g transform="translate(141.088406, 261.456252)"><g><path d="M 8.265625 -2.296875 L 8.265625 -9.15625 L 7.53125 -9.15625 L 7.53125 -10.265625 L 10.40625 -10.25 L 10.40625 -9.15625 L 9.65625 -9.15625 L 9.65625 0 L 8.546875 0 L 2.703125 -7.96875 L 2.703125 -1.125 L 3.421875 -1.125 L 3.421875 0 L 0.578125 0 L 0.578125 -1.125 L 1.296875 -1.125 L 1.296875 -9.15625 L 0.578125 -9.15625 L 0.578125 -10.265625 L 2.421875 -10.25 Z M 8.265625 -2.296875 "/></g></g></g><g fill="#0c1d54" fill-opacity="1"><g transform="translate(156.669776, 261.456252)"><g><path d="M 0.578125 -10.25 L 8.046875 -10.25 L 8.046875 -8.359375 L 7.046875 -8.359375 L 6.984375 -9.15625 L 2.703125 -9.15625 L 2.703125 -5.703125 L 5.859375 -5.703125 L 5.859375 -4.578125 L 2.703125 -4.578125 L 2.703125 -1.125 L 6.984375 -1.125 L 7.046875 -1.9375 L 8.046875 -1.9375 L 8.046875 0 L 0.578125 0 L 0.578125 -1.125 L 1.296875 -1.125 L 1.296875 -9.15625 L 0.578125 -9.15625 Z M 0.578125 -10.25 "/></g></g></g><g fill="#0c1d54" fill-opacity="1"><g transform="translate(169.627772, 261.456252)"><g><path d="M 7.53125 -7.359375 L 6.578125 -7.359375 L 6.53125 -8.25 C 6.382812 -8.425781 6.191406 -8.609375 5.953125 -8.796875 C 5.722656 -8.984375 5.445312 -9.140625 5.125 -9.265625 C 4.8125 -9.398438 4.445312 -9.46875 4.03125 -9.46875 C 3.457031 -9.46875 3 -9.332031 2.65625 -9.0625 C 2.3125 -8.789062 2.140625 -8.414062 2.140625 -7.9375 C 2.140625 -7.632812 2.226562 -7.375 2.40625 -7.15625 C 2.582031 -6.9375 2.851562 -6.722656 3.21875 -6.515625 L 6.265625 -4.890625 C 6.859375 -4.585938 7.285156 -4.238281 7.546875 -3.84375 C 7.804688 -3.445312 7.9375 -2.988281 7.9375 -2.46875 C 7.9375 -1.894531 7.789062 -1.410156 7.5 -1.015625 C 7.207031 -0.617188 6.800781 -0.316406 6.28125 -0.109375 C 5.769531 0.0976562 5.1875 0.203125 4.53125 0.203125 C 3.851562 0.203125 3.273438 0.109375 2.796875 -0.078125 C 2.316406 -0.273438 1.925781 -0.5 1.625 -0.75 C 1.320312 -1.007812 1.097656 -1.234375 0.953125 -1.421875 C 0.816406 -1.617188 0.75 -1.71875 0.75 -1.71875 L 0.75 -2.90625 L 1.703125 -2.90625 L 1.734375 -2.203125 C 1.847656 -2.035156 2.019531 -1.835938 2.25 -1.609375 C 2.488281 -1.390625 2.796875 -1.195312 3.171875 -1.03125 C 3.554688 -0.863281 4.019531 -0.78125 4.5625 -0.78125 C 5.15625 -0.78125 5.632812 -0.90625 6 -1.15625 C 6.363281 -1.414062 6.546875 -1.773438 6.546875 -2.234375 C 6.546875 -2.515625 6.472656 -2.769531 6.328125 -3 C 6.191406 -3.238281 5.925781 -3.46875 5.53125 -3.6875 L 2.5625 -5.28125 C 1.925781 -5.625 1.460938 -5.976562 1.171875 -6.34375 C 0.890625 -6.707031 0.75 -7.160156 0.75 -7.703125 C 0.75 -8.546875 1.046875 -9.222656 1.640625 -9.734375 C 2.234375 -10.242188 3.019531 -10.5 4 -10.5 C 4.613281 -10.5 5.144531 -10.398438 5.59375 -10.203125 C 6.039062 -10.015625 6.40625 -9.789062 6.6875 -9.53125 C 6.976562 -9.28125 7.191406 -9.054688 7.328125 -8.859375 C 7.460938 -8.671875 7.53125 -8.578125 7.53125 -8.578125 Z M 7.53125 -7.359375 "/></g></g></g><g fill="#0c1d54" fill-opacity="1"><g transform="translate(182.745733, 261.456252)"><g><path d="M 7.53125 -7.359375 L 6.578125 -7.359375 L 6.53125 -8.25 C 6.382812 -8.425781 6.191406 -8.609375 5.953125 -8.796875 C 5.722656 -8.984375 5.445312 -9.140625 5.125 -9.265625 C 4.8125 -9.398438 4.445312 -9.46875 4.03125 -9.46875 C 3.457031 -9.46875 3 -9.332031 2.65625 -9.0625 C 2.3125 -8.789062 2.140625 -8.414062 2.140625 -7.9375 C 2.140625 -7.632812 2.226562 -7.375 2.40625 -7.15625 C 2.582031 -6.9375 2.851562 -6.722656 3.21875 -6.515625 L 6.265625 -4.890625 C 6.859375 -4.585938 7.285156 -4.238281 7.546875 -3.84375 C 7.804688 -3.445312 7.9375 -2.988281 7.9375 -2.46875 C 7.9375 -1.894531 7.789062 -1.410156 7.5 -1.015625 C 7.207031 -0.617188 6.800781 -0.316406 6.28125 -0.109375 C 5.769531 0.0976562 5.1875 0.203125 4.53125 0.203125 C 3.851562 0.203125 3.273438 0.109375 2.796875 -0.078125 C 2.316406 -0.273438 1.925781 -0.5 1.625 -0.75 C 1.320312 -1.007812 1.097656 -1.234375 0.953125 -1.421875 C 0.816406 -1.617188 0.75 -1.71875 0.75 -1.71875 L 0.75 -2.90625 L 1.703125 -2.90625 L 1.734375 -2.203125 C 1.847656 -2.035156 2.019531 -1.835938 2.25 -1.609375 C 2.488281 -1.390625 2.796875 -1.195312 3.171875 -1.03125 C 3.554688 -0.863281 4.019531 -0.78125 4.5625 -0.78125 C 5.15625 -0.78125 5.632812 -0.90625 6 -1.15625 C 6.363281 -1.414062 6.546875 -1.773438 6.546875 -2.234375 C 6.546875 -2.515625 6.472656 -2.769531 6.328125 -3 C 6.191406 -3.238281 5.925781 -3.46875 5.53125 -3.6875 L 2.5625 -5.28125 C 1.925781 -5.625 1.460938 -5.976562 1.171875 -6.34375 C 0.890625 -6.707031 0.75 -7.160156 0.75 -7.703125 C 0.75 -8.546875 1.046875 -9.222656 1.640625 -9.734375 C 2.234375 -10.242188 3.019531 -10.5 4 -10.5 C 4.613281 -10.5 5.144531 -10.398438 5.59375 -10.203125 C 6.039062 -10.015625 6.40625 -9.789062 6.6875 -9.53125 C 6.976562 -9.28125 7.191406 -9.054688 7.328125 -8.859375 C 7.460938 -8.671875 7.53125 -8.578125 7.53125 -8.578125 Z M 7.53125 -7.359375 "/></g></g></g><g fill="#0c1d54" fill-opacity="1"><g transform="translate(195.863694, 261.456252)"><g/></g></g><g fill="#0c1d54" fill-opacity="1"><g transform="translate(204.902638, 261.456252)"><g><path d="M 0.296875 -10.265625 L 8.65625 -10.25 L 8.65625 -8.25 L 7.59375 -8.25 L 7.53125 -9.15625 L 5.1875 -9.15625 L 5.1875 -1.125 L 5.90625 -1.125 L 5.90625 0 L 3.046875 0 L 3.046875 -1.125 L 3.78125 -1.125 L 3.78125 -9.15625 L 1.40625 -9.15625 L 1.359375 -8.25 L 0.296875 -8.25 Z M 0.296875 -10.265625 "/></g></g></g><g fill="#0c1d54" fill-opacity="1"><g transform="translate(218.452487, 261.456252)"><g><path d="M 3.375 0 L 0.578125 0 L 0.578125 -1.125 L 1.296875 -1.125 L 1.296875 -9.15625 L 0.578125 -9.15625 L 0.578125 -10.25 L 5.078125 -10.25 C 5.628906 -10.25 6.128906 -10.140625 6.578125 -9.921875 C 7.023438 -9.703125 7.378906 -9.390625 7.640625 -8.984375 C 7.910156 -8.578125 8.046875 -8.082031 8.046875 -7.5 C 8.046875 -6.757812 7.828125 -6.148438 7.390625 -5.671875 C 6.953125 -5.203125 6.398438 -4.910156 5.734375 -4.796875 L 7.96875 -1.125 L 8.78125 -1.125 L 8.78125 0 L 7.125 0 L 4.265625 -4.75 L 2.703125 -4.75 L 2.703125 -1.125 L 3.375 -1.125 Z M 2.703125 -5.59375 L 4.71875 -5.59375 C 5.289062 -5.59375 5.753906 -5.753906 6.109375 -6.078125 C 6.472656 -6.410156 6.65625 -6.84375 6.65625 -7.375 C 6.65625 -7.90625 6.476562 -8.332031 6.125 -8.65625 C 5.769531 -8.988281 5.300781 -9.15625 4.71875 -9.15625 L 2.703125 -9.15625 Z M 2.703125 -5.59375 "/></g></g></g><g fill="#0c1d54" fill-opacity="1"><g transform="translate(232.146303, 261.456252)"><g><path d="M 0.578125 -10.25 L 8.046875 -10.25 L 8.046875 -8.359375 L 7.046875 -8.359375 L 6.984375 -9.15625 L 2.703125 -9.15625 L 2.703125 -5.703125 L 5.859375 -5.703125 L 5.859375 -4.578125 L 2.703125 -4.578125 L 2.703125 -1.125 L 6.984375 -1.125 L 7.046875 -1.9375 L 8.046875 -1.9375 L 8.046875 0 L 0.578125 0 L 0.578125 -1.125 L 1.296875 -1.125 L 1.296875 -9.15625 L 0.578125 -9.15625 Z M 0.578125 -10.25 "/></g></g></g><g fill="#0c1d54" fill-opacity="1"><g transform="translate(245.104298, 261.456252)"><g><path d="M 8.265625 -2.296875 L 8.265625 -9.15625 L 7.53125 -9.15625 L 7.53125 -10.265625 L 10.40625 -10.25 L 10.40625 -9.15625 L 9.65625 -9.15625 L 9.65625 0 L 8.546875 0 L 2.703125 -7.96875 L 2.703125 -1.125 L 3.421875 -1.125 L 3.421875 0 L 0.578125 0 L 0.578125 -1.125 L 1.296875 -1.125 L 1.296875 -9.15625 L 0.578125 -9.15625 L 0.578125 -10.265625 L 2.421875 -10.25 Z M 8.265625 -2.296875 "/></g></g></g><g fill="#0c1d54" fill-opacity="1"><g transform="translate(260.685669, 261.456252)"><g><path d="M 5.515625 -9.15625 L 2.703125 -9.15625 L 2.703125 -1.125 L 5.515625 -1.125 C 6.335938 -1.125 7 -1.300781 7.5 -1.65625 C 8.007812 -2.019531 8.382812 -2.503906 8.625 -3.109375 C 8.863281 -3.722656 8.984375 -4.398438 8.984375 -5.140625 C 8.984375 -5.878906 8.863281 -6.550781 8.625 -7.15625 C 8.382812 -7.757812 8.007812 -8.242188 7.5 -8.609375 C 7 -8.972656 6.335938 -9.15625 5.515625 -9.15625 Z M 0.578125 -10.25 L 5.6875 -10.25 C 6.75 -10.25 7.628906 -10.019531 8.328125 -9.5625 C 9.023438 -9.101562 9.546875 -8.488281 9.890625 -7.71875 C 10.234375 -6.945312 10.40625 -6.085938 10.40625 -5.140625 C 10.40625 -4.203125 10.234375 -3.34375 9.890625 -2.5625 C 9.546875 -1.78125 9.023438 -1.15625 8.328125 -0.6875 C 7.628906 -0.226562 6.75 0 5.6875 0 L 0.578125 0 L 0.578125 -1.125 L 1.296875 -1.125 L 1.296875 -9.15625 L 0.578125 -9.15625 Z M 0.578125 -10.25 "/></g></g></g><g fill="#0c1d54" fill-opacity="1"><g transform="translate(276.538974, 261.456252)"><g><path d="M 7.53125 -7.359375 L 6.578125 -7.359375 L 6.53125 -8.25 C 6.382812 -8.425781 6.191406 -8.609375 5.953125 -8.796875 C 5.722656 -8.984375 5.445312 -9.140625 5.125 -9.265625 C 4.8125 -9.398438 4.445312 -9.46875 4.03125 -9.46875 C 3.457031 -9.46875 3 -9.332031 2.65625 -9.0625 C 2.3125 -8.789062 2.140625 -8.414062 2.140625 -7.9375 C 2.140625 -7.632812 2.226562 -7.375 2.40625 -7.15625 C 2.582031 -6.9375 2.851562 -6.722656 3.21875 -6.515625 L 6.265625 -4.890625 C 6.859375 -4.585938 7.285156 -4.238281 7.546875 -3.84375 C 7.804688 -3.445312 7.9375 -2.988281 7.9375 -2.46875 C 7.9375 -1.894531 7.789062 -1.410156 7.5 -1.015625 C 7.207031 -0.617188 6.800781 -0.316406 6.28125 -0.109375 C 5.769531 0.0976562 5.1875 0.203125 4.53125 0.203125 C 3.851562 0.203125 3.273438 0.109375 2.796875 -0.078125 C 2.316406 -0.273438 1.925781 -0.5 1.625 -0.75 C 1.320312 -1.007812 1.097656 -1.234375 0.953125 -1.421875 C 0.816406 -1.617188 0.75 -1.71875 0.75 -1.71875 L 0.75 -2.90625 L 1.703125 -2.90625 L 1.734375 -2.203125 C 1.847656 -2.035156 2.019531 -1.835938 2.25 -1.609375 C 2.488281 -1.390625 2.796875 -1.195312 3.171875 -1.03125 C 3.554688 -0.863281 4.019531 -0.78125 4.5625 -0.78125 C 5.15625 -0.78125 5.632812 -0.90625 6 -1.15625 C 6.363281 -1.414062 6.546875 -1.773438 6.546875 -2.234375 C 6.546875 -2.515625 6.472656 -2.769531 6.328125 -3 C 6.191406 -3.238281 5.925781 -3.46875 5.53125 -3.6875 L 2.5625 -5.28125 C 1.925781 -5.625 1.460938 -5.976562 1.171875 -6.34375 C 0.890625 -6.707031 0.75 -7.160156 0.75 -7.703125 C 0.75 -8.546875 1.046875 -9.222656 1.640625 -9.734375 C 2.234375 -10.242188 3.019531 -10.5 4 -10.5 C 4.613281 -10.5 5.144531 -10.398438 5.59375 -10.203125 C 6.039062 -10.015625 6.40625 -9.789062 6.6875 -9.53125 C 6.976562 -9.28125 7.191406 -9.054688 7.328125 -8.859375 C 7.460938 -8.671875 7.53125 -8.578125 7.53125 -8.578125 Z M 7.53125 -7.359375 "/></g></g></g><g fill="#0c1d54" fill-opacity="1"><g transform="translate(65.941091, 283.20625)"><g><path d="M 7.53125 -7.359375 L 6.578125 -7.359375 L 6.53125 -8.25 C 6.382812 -8.425781 6.191406 -8.609375 5.953125 -8.796875 C 5.722656 -8.984375 5.445312 -9.140625 5.125 -9.265625 C 4.8125 -9.398438 4.445312 -9.46875 4.03125 -9.46875 C 3.457031 -9.46875 3 -9.332031 2.65625 -9.0625 C 2.3125 -8.789062 2.140625 -8.414062 2.140625 -7.9375 C 2.140625 -7.632812 2.226562 -7.375 2.40625 -7.15625 C 2.582031 -6.9375 2.851562 -6.722656 3.21875 -6.515625 L 6.265625 -4.890625 C 6.859375 -4.585938 7.285156 -4.238281 7.546875 -3.84375 C 7.804688 -3.445312 7.9375 -2.988281 7.9375 -2.46875 C 7.9375 -1.894531 7.789062 -1.410156 7.5 -1.015625 C 7.207031 -0.617188 6.800781 -0.316406 6.28125 -0.109375 C 5.769531 0.0976562 5.1875 0.203125 4.53125 0.203125 C 3.851562 0.203125 3.273438 0.109375 2.796875 -0.078125 C 2.316406 -0.273438 1.925781 -0.5 1.625 -0.75 C 1.320312 -1.007812 1.097656 -1.234375 0.953125 -1.421875 C 0.816406 -1.617188 0.75 -1.71875 0.75 -1.71875 L 0.75 -2.90625 L 1.703125 -2.90625 L 1.734375 -2.203125 C 1.847656 -2.035156 2.019531 -1.835938 2.25 -1.609375 C 2.488281 -1.390625 2.796875 -1.195312 3.171875 -1.03125 C 3.554688 -0.863281 4.019531 -0.78125 4.5625 -0.78125 C 5.15625 -0.78125 5.632812 -0.90625 6 -1.15625 C 6.363281 -1.414062 6.546875 -1.773438 6.546875 -2.234375 C 6.546875 -2.515625 6.472656 -2.769531 6.328125 -3 C 6.191406 -3.238281 5.925781 -3.46875 5.53125 -3.6875 L 2.5625 -5.28125 C 1.925781 -5.625 1.460938 -5.976562 1.171875 -6.34375 C 0.890625 -6.707031 0.75 -7.160156 0.75 -7.703125 C 0.75 -8.546875 1.046875 -9.222656 1.640625 -9.734375 C 2.234375 -10.242188 3.019531 -10.5 4 -10.5 C 4.613281 -10.5 5.144531 -10.398438 5.59375 -10.203125 C 6.039062 -10.015625 6.40625 -9.789062 6.6875 -9.53125 C 6.976562 -9.28125 7.191406 -9.054688 7.328125 -8.859375 C 7.460938 -8.671875 7.53125 -8.578125 7.53125 -8.578125 Z M 7.53125 -7.359375 "/></g></g></g><g fill="#0c1d54" fill-opacity="1"><g transform="translate(79.059049, 283.20625)"><g><path d="M 0.578125 -10.25 L 8.046875 -10.25 L 8.046875 -8.359375 L 7.046875 -8.359375 L 6.984375 -9.15625 L 2.703125 -9.15625 L 2.703125 -5.703125 L 5.859375 -5.703125 L 5.859375 -4.578125 L 2.703125 -4.578125 L 2.703125 -1.125 L 6.984375 -1.125 L 7.046875 -1.9375 L 8.046875 -1.9375 L 8.046875 0 L 0.578125 0 L 0.578125 -1.125 L 1.296875 -1.125 L 1.296875 -9.15625 L 0.578125 -9.15625 Z M 0.578125 -10.25 "/></g></g></g><g fill="#0c1d54" fill-opacity="1"><g transform="translate(92.017042, 283.20625)"><g><path d="M 8.265625 -2.296875 L 8.265625 -9.15625 L 7.53125 -9.15625 L 7.53125 -10.265625 L 10.40625 -10.25 L 10.40625 -9.15625 L 9.65625 -9.15625 L 9.65625 0 L 8.546875 0 L 2.703125 -7.96875 L 2.703125 -1.125 L 3.421875 -1.125 L 3.421875 0 L 0.578125 0 L 0.578125 -1.125 L 1.296875 -1.125 L 1.296875 -9.15625 L 0.578125 -9.15625 L 0.578125 -10.265625 L 2.421875 -10.25 Z M 8.265625 -2.296875 "/></g></g></g><g fill="#0c1d54" fill-opacity="1"><g transform="translate(107.59841, 283.20625)"><g><path d="M 0.296875 -10.265625 L 8.65625 -10.25 L 8.65625 -8.25 L 7.59375 -8.25 L 7.53125 -9.15625 L 5.1875 -9.15625 L 5.1875 -1.125 L 5.90625 -1.125 L 5.90625 0 L 3.046875 0 L 3.046875 -1.125 L 3.78125 -1.125 L 3.78125 -9.15625 L 1.40625 -9.15625 L 1.359375 -8.25 L 0.296875 -8.25 Z M 0.296875 -10.265625 "/></g></g></g><g fill="#0c1d54" fill-opacity="1"><g transform="translate(121.148256, 283.20625)"><g><path d="M 0.578125 -10.265625 L 3.421875 -10.25 L 3.421875 -9.140625 L 2.703125 -9.15625 L 2.703125 -1.125 L 3.421875 -1.125 L 3.421875 0 L 0.578125 0 L 0.578125 -1.125 L 1.296875 -1.125 L 1.296875 -9.15625 L 0.578125 -9.15625 Z M 0.578125 -10.265625 "/></g></g></g><g fill="#0c1d54" fill-opacity="1"><g transform="translate(129.7553, 283.20625)"><g><path d="M 2.859375 -10.25 L 6.21875 -4.796875 L 9.5625 -10.25 L 11.859375 -10.25 L 11.859375 -9.15625 L 11.140625 -9.15625 L 11.140625 -1.125 L 11.859375 -1.125 L 11.859375 0 L 8.984375 0 L 8.984375 -1.125 L 9.75 -1.125 L 9.75 -8.421875 L 6.484375 -3.21875 L 5.9375 -3.21875 L 2.703125 -8.421875 L 2.703125 -1.125 L 3.421875 -1.125 L 3.421875 0 L 0.578125 0 L 0.578125 -1.125 L 1.296875 -1.125 L 1.296875 -9.15625 L 0.578125 -9.15625 L 0.578125 -10.265625 Z M 2.859375 -10.25 "/></g></g></g><g fill="#0c1d54" fill-opacity="1"><g transform="translate(146.792313, 283.20625)"><g><path d="M 0.578125 -10.25 L 8.046875 -10.25 L 8.046875 -8.359375 L 7.046875 -8.359375 L 6.984375 -9.15625 L 2.703125 -9.15625 L 2.703125 -5.703125 L 5.859375 -5.703125 L 5.859375 -4.578125 L 2.703125 -4.578125 L 2.703125 -1.125 L 6.984375 -1.125 L 7.046875 -1.9375 L 8.046875 -1.9375 L 8.046875 0 L 0.578125 0 L 0.578125 -1.125 L 1.296875 -1.125 L 1.296875 -9.15625 L 0.578125 -9.15625 Z M 0.578125 -10.25 "/></g></g></g><g fill="#0c1d54" fill-opacity="1"><g transform="translate(159.750308, 283.20625)"><g><path d="M 8.265625 -2.296875 L 8.265625 -9.15625 L 7.53125 -9.15625 L 7.53125 -10.265625 L 10.40625 -10.25 L 10.40625 -9.15625 L 9.65625 -9.15625 L 9.65625 0 L 8.546875 0 L 2.703125 -7.96875 L 2.703125 -1.125 L 3.421875 -1.125 L 3.421875 0 L 0.578125 0 L 0.578125 -1.125 L 1.296875 -1.125 L 1.296875 -9.15625 L 0.578125 -9.15625 L 0.578125 -10.265625 L 2.421875 -10.25 Z M 8.265625 -2.296875 "/></g></g></g><g fill="#0c1d54" fill-opacity="1"><g transform="translate(175.331679, 283.20625)"><g><path d="M 0.296875 -10.265625 L 8.65625 -10.25 L 8.65625 -8.25 L 7.59375 -8.25 L 7.53125 -9.15625 L 5.1875 -9.15625 L 5.1875 -1.125 L 5.90625 -1.125 L 5.90625 0 L 3.046875 0 L 3.046875 -1.125 L 3.78125 -1.125 L 3.78125 -9.15625 L 1.40625 -9.15625 L 1.359375 -8.25 L 0.296875 -8.25 Z M 0.296875 -10.265625 "/></g></g></g><g fill="#0c1d54" fill-opacity="1"><g transform="translate(188.881528, 283.20625)"><g/></g></g><g fill="#0c1d54" fill-opacity="1"><g transform="translate(197.920472, 283.20625)"><g><path d="M 4.875 -10.25 L 6.375 -10.25 L 10.171875 -1.125 L 10.9375 -1.125 L 10.9375 0 L 7.890625 0 L 7.890625 -1.125 L 8.703125 -1.125 L 7.828125 -3.375 L 3.40625 -3.375 L 2.53125 -1.125 L 3.359375 -1.125 L 3.359375 0 L 0.296875 0 L 0.296875 -1.125 L 1.078125 -1.125 Z M 3.8125 -4.390625 L 7.421875 -4.390625 L 5.609375 -9.03125 Z M 3.8125 -4.390625 "/></g></g></g><g fill="#0c1d54" fill-opacity="1"><g transform="translate(213.757777, 283.20625)"><g><path d="M 8.265625 -2.296875 L 8.265625 -9.15625 L 7.53125 -9.15625 L 7.53125 -10.265625 L 10.40625 -10.25 L 10.40625 -9.15625 L 9.65625 -9.15625 L 9.65625 0 L 8.546875 0 L 2.703125 -7.96875 L 2.703125 -1.125 L 3.421875 -1.125 L 3.421875 0 L 0.578125 0 L 0.578125 -1.125 L 1.296875 -1.125 L 1.296875 -9.15625 L 0.578125 -9.15625 L 0.578125 -10.265625 L 2.421875 -10.25 Z M 8.265625 -2.296875 "/></g></g></g><g fill="#0c1d54" fill-opacity="1"><g transform="translate(229.339148, 283.20625)"><g><path d="M 4.875 -10.25 L 6.375 -10.25 L 10.171875 -1.125 L 10.9375 -1.125 L 10.9375 0 L 7.890625 0 L 7.890625 -1.125 L 8.703125 -1.125 L 7.828125 -3.375 L 3.40625 -3.375 L 2.53125 -1.125 L 3.359375 -1.125 L 3.359375 0 L 0.296875 0 L 0.296875 -1.125 L 1.078125 -1.125 Z M 3.8125 -4.390625 L 7.421875 -4.390625 L 5.609375 -9.03125 Z M 3.8125 -4.390625 "/></g></g></g><g fill="#0c1d54" fill-opacity="1"><g transform="translate(245.176454, 283.20625)"><g><path d="M 0.578125 -10.25 L 3.421875 -10.25 L 3.421875 -9.15625 L 2.703125 -9.15625 L 2.703125 -1.125 L 6.984375 -1.125 L 7.046875 -1.921875 L 8.046875 -1.921875 L 8.046875 0 L 0.578125 0 L 0.578125 -1.125 L 1.296875 -1.125 L 1.296875 -9.15625 L 0.578125 -9.15625 Z M 0.578125 -10.25 "/></g></g></g><g fill="#0c1d54" fill-opacity="1"><g transform="translate(258.134438, 283.20625)"><g><path d="M 4.953125 -3.578125 L 1.15625 -9.140625 L 0.296875 -9.140625 L 0.296875 -10.25 L 3.4375 -10.25 L 3.4375 -9.140625 L 2.640625 -9.140625 L 5.65625 -4.640625 L 8.6875 -9.140625 L 7.890625 -9.140625 L 7.890625 -10.25 L 11.03125 -10.25 L 11.03125 -9.140625 L 10.171875 -9.140625 L 6.375 -3.578125 L 6.375 -1.125 L 7.09375 -1.125 L 7.09375 0 L 4.21875 0 L 4.21875 -1.125 L 4.953125 -1.125 Z M 4.953125 -3.578125 "/></g></g></g><g fill="#0c1d54" fill-opacity="1"><g transform="translate(274.083701, 283.20625)"><g><path d="M 1.5625 -9.15625 L 1.5 -8.296875 L 0.453125 -8.296875 L 0.453125 -10.25 L 7.765625 -10.25 L 7.765625 -9.265625 L 1.953125 -1.125 L 6.921875 -1.125 L 6.984375 -1.953125 L 8.046875 -1.953125 L 8.046875 0 L 0.296875 0 L 0.296875 -1.015625 L 6.109375 -9.15625 Z M 1.5625 -9.15625 "/></g></g></g><g fill="#0c1d54" fill-opacity="1"><g transform="translate(287.041685, 283.20625)"><g><path d="M 0.578125 -10.25 L 8.046875 -10.25 L 8.046875 -8.359375 L 7.046875 -8.359375 L 6.984375 -9.15625 L 2.703125 -9.15625 L 2.703125 -5.703125 L 5.859375 -5.703125 L 5.859375 -4.578125 L 2.703125 -4.578125 L 2.703125 -1.125 L 6.984375 -1.125 L 7.046875 -1.9375 L 8.046875 -1.9375 L 8.046875 0 L 0.578125 0 L 0.578125 -1.125 L 1.296875 -1.125 L 1.296875 -9.15625 L 0.578125 -9.15625 Z M 0.578125 -10.25 "/></g></g></g><g fill="#0c1d54" fill-opacity="1"><g transform="translate(299.999669, 283.20625)"><g><path d="M 3.375 0 L 0.578125 0 L 0.578125 -1.125 L 1.296875 -1.125 L 1.296875 -9.15625 L 0.578125 -9.15625 L 0.578125 -10.25 L 5.078125 -10.25 C 5.628906 -10.25 6.128906 -10.140625 6.578125 -9.921875 C 7.023438 -9.703125 7.378906 -9.390625 7.640625 -8.984375 C 7.910156 -8.578125 8.046875 -8.082031 8.046875 -7.5 C 8.046875 -6.757812 7.828125 -6.148438 7.390625 -5.671875 C 6.953125 -5.203125 6.398438 -4.910156 5.734375 -4.796875 L 7.96875 -1.125 L 8.78125 -1.125 L 8.78125 0 L 7.125 0 L 4.265625 -4.75 L 2.703125 -4.75 L 2.703125 -1.125 L 3.375 -1.125 Z M 2.703125 -5.59375 L 4.71875 -5.59375 C 5.289062 -5.59375 5.753906 -5.753906 6.109375 -6.078125 C 6.472656 -6.410156 6.65625 -6.84375 6.65625 -7.375 C 6.65625 -7.90625 6.476562 -8.332031 6.125 -8.65625 C 5.769531 -8.988281 5.300781 -9.15625 4.71875 -9.15625 L 2.703125 -9.15625 Z M 2.703125 -5.59375 "/></g></g></g></svg>